 <svg  version="1.0" xmlns="http://www.w3.org/2000/svg"  width="144.000000pt" height="144.000000pt" viewBox="0 0 144.000000 144.000000"  preserveAspectRatio="xMidYMid meet">  <g transform="translate(0.000000,144.000000) scale(0.100000,-0.100000)" fill="#331b86" stroke="none"> <path d="M220 1349 c-56 -25 -95 -62 -123 -114 -21 -38 -22 -54 -25 -387 l-3 -348 218 -2 218 -3 3 -212 2 -213 343 0 c386 0 390 1 458 77 59 66 64 90 64 348 l0 230 -217 3 -218 2 0 -115 0 -115 -215 0 -215 0 0 215 0 215 433 2 432 3 0 215 0 215 -555 2 c-540 3 -556 2 -600 -18z"/> </g> </svg> 